<?xml version="1.0" encoding="UTF-8"?> <svg xmlns="http://www.w3.org/2000/svg" id="Layer_1" data-name="Layer 1" viewBox="0 0 51.96 60"><defs><style>.cls-1{fill:#d0011b;fill-rule:evenodd;}</style></defs><path class="cls-1" d="M14.5,12V36.16l-2.62,1.52V27.92L7.25,30.59v9.76L4.63,41.86V17.67L14.5,12ZM4.22,47.44l19.13-11L19.13,34V4L0,15V45Z"></path><polygon class="cls-1" points="11.88 24.89 11.88 16.51 7.25 19.19 7.25 27.56 11.88 24.89"></polygon><path class="cls-1" d="M37.46,20.34l3.08,1.78.17.1,4,2.31L47.33,26v3L26.38,17V14L33.45,18l1.38.79,2.63,1.52Zm7.25-1.15,2.62,1.51v-3l-2.62-1.52-4-2.28L26.38,5.57v3l7.07,4.09,1.38.79L37.46,15l3.08,1.78.17.09,4,2.32ZM52,37.09V28.41L50,25l2-1.14V15l-1.33-.77-3.3-1.9-2.62-1.52-1.64-.94L26,0,21.76,2.44V24.53L26,22.09Z"></path><path class="cls-1" d="M28.61,44.77l-1.43.82-1.66,1-.16.09-4,2.31,2.35,1.36L26,51.62l4-2.3.17-.1,1.66-1h0l4-2.31,0,0,.11-.06,1.27-.73,1.82-1.05,2.62-1.52,1.38-.8,1.25-.71h0l1.31.75,1.31.76-14.37,8.3-4,2.28L26,54.66l-2.62-1.52h0l-4.63-2.67h0l-.34-.2L16.1,49,37.05,36.86l.34.19,2.29,1.33h0l-1.25.71-1.38.8-2.62,1.52-1.82,1.05-1.26.73-.12.06-.05,0-2.57,1.49ZM6.85,49l7.52,4.34,4,2.29L26,60l1.33-.77,3.3-1.9,2.62-1.52,1.64-.94L52,45V40.12l-19.13-11V34Z"></path></svg> 